Coordinates
version=1
nRows=16
nColumns=36
inDegrees=yes

Units are S.I. units (second, meters, Newtons, ...)
If the header above contains a line with 'inDegrees', this indicates whether rotational values are in degrees (yes) or radians (no).

endheader
time	pelvis_tilt	pelvis_list	pelvis_rotation	pelvis_tx	pelvis_ty	pelvis_tz	hip_flexion_r	hip_adduction_r	hip_rotation_r	knee_angle_r	knee_angle_r_beta	ankle_angle_r	subtalar_angle_r	mtp_angle_r	hip_flexion_l	hip_adduction_l	hip_rotation_l	knee_angle_l	knee_angle_l_beta	ankle_angle_l	subtalar_angle_l	mtp_angle_l	lumbar_extension	lumbar_bending	lumbar_rotation	arm_flex_r	arm_add_r	arm_rot_r	elbow_flex_r	pro_sup_r	arm_flex_l	arm_add_l	arm_rot_l	elbow_flex_l	pro_sup_l
      1.46250000	      0.11945164	      0.95248424	      0.85871090	     -0.84242829	      1.25332271	     -0.08255941	     -6.03429795	      0.77352727	      3.65048064	      0.40141572	      0.00700603	      4.88239861	    -12.66608152	     -7.49999987	     -5.55299031	      0.24086862	      6.51029664	      0.46200699	      0.00806354	      7.52927978	     -3.11161585	     -7.49999987	     -9.88074625	      0.06028905	      1.63181231	      9.76543116	     -5.96610802	     19.39423189	     22.29272266	     70.70667033	      8.80632135	     -6.44859421	     19.30373609	     24.96593830	     69.10808830
      1.46666670	      0.11102007	      0.95348505	      0.91093181	     -0.84169492	      1.25549429	     -0.08308929	     -6.05708437	      0.77270295	      3.55767258	      0.39923363	      0.00696794	      4.96970751	    -12.38919301	     -7.49999987	     -5.53709282	      0.23007574	      6.69096819	      0.46411128	      0.00810027	      7.29455192	     -3.39512063	     -7.49999987	     -9.89594252	      0.05717610	      1.59618793	      9.71542054	     -5.98992778	     19.27355399	     22.34653740	     70.04132690	      8.74382817	     -6.43147479	     19.09840776	     25.03674149	     68.52983774
      1.47083330	      0.08395028	      0.95846052	      0.89410745	     -0.84171974	      1.25198282	     -0.08334060	     -6.03780396	      0.76090198	      3.55307400	      0.41192358	      0.00718942	      5.01433381	    -12.42786356	     -7.49999987	     -5.51311502	      0.23765647	      6.69255055	      0.46420127	      0.00810184	      7.34003783	     -3.41046709	     -7.49999987	     -9.92168066	      0.05104382	      1.60192930	      9.72849772	     -5.99267586	     19.27902612	     22.33829541	     70.05379588	      8.74733997	     -6.44140336	     19.10239740	     25.02443573	     68.54023376
      1.47500000	      0.09662305	      0.97066278	      0.89106264	     -0.84185585	      1.25344151	     -0.08268507	     -6.09732784	      0.76582647	      3.70614232	      0.40925177	      0.00714279	      5.04380691	    -12.55665013	     -7.49999987	     -5.54527325	      0.24195407	      6.84434791	      0.46298914	      0.00808068	      7.33829255	     -3.47480119	     -7.49999987	     -9.86056516	      0.00389926	      1.57994111	      9.69601046	     -5.97367414	     19.41704446	     22.45001531	     69.66817422	      8.67742664	     -6.47026365	     19.10696158	     25.14306323	     68.17808047
      1.47916670	      0.03341941	      0.97117197	      0.88665629	     -0.84310855	      1.25099191	     -0.08368576	     -6.03126278	      0.76541860	      3.88644309	      0.41364692	      0.00721950	      4.91049834	    -13.00062039	     -7.49999987	     -5.47096273	      0.25239362	      6.81814424	      0.46825762	      0.00817264	      7.48376344	     -3.40728857	     -7.49999987	     -9.81415388	     -0.00772344	      1.59348086	      9.66494294	     -6.02842761	     19.49643513	     22.63339037	     69.46311415	      8.67234327	     -6.48422296	     19.11644338	     25.25080182	     67.98200483
      1.48333330	      0.00377299	      0.99569206	      0.83533762	     -0.84331038	      1.25358150	     -0.08374295	     -6.04215410	      0.72007473	      3.81626942	      0.42655265	      0.00744475	      4.82098979	    -13.00541760	     -7.49999987	     -5.44418375	      0.29686316	      6.65700083	      0.47102890	      0.00822101	      7.54444876	     -3.07880734	     -7.49999987	     -9.76960461	     -0.03046824	      1.61216010	      9.77719501	     -6.00225017	     19.62950769	     22.37120398	     69.62679217	      8.76524637	     -6.45177765	     19.21722736	     24.99233891	     68.11189786
      1.48750000	     -0.02581545	      1.00160873	      0.81296458	     -0.84198453	      1.25600868	     -0.08262352	     -6.05309971	      0.69780584	      3.55094502	      0.43398344	      0.00757444	      4.90442914	    -12.75306419	     -7.49999987	     -5.41822477	      0.34009199	      6.70040563	      0.46872509	      0.00818080	      7.51624256	     -3.07014855	     -7.49999987	     -9.72131531	     -0.05086613	      1.64326793	      9.81691254	     -6.01945137	     19.75456868	     22.30990252	     69.60468942	      8.78649702	     -6.42363584	     19.24969311	     24.86533366	     68.08457941
      1.49166670	     -0.14950026	      0.99684681	      0.79599536	     -0.84218689	      1.25437195	     -0.08279608	     -5.95829742	      0.69533620	      3.70287770	      0.43503117	      0.00759273	      4.64178953	    -13.26912397	     -7.49999987	     -5.29234940	      0.36342966	      6.82226568	      0.46987071	      0.00820079	      7.41834819	     -3.33418653	     -7.49999987	     -9.59003424	     -0.02888764	      1.61542862	      9.82252877	     -6.06873215	     19.54985517	     22.34646931	     74.81023674	      8.73851049	     -6.50324451	     19.22463140	     24.81154109	     72.84406900
      1.49583330	     -0.13686388	      0.98905467	      0.79194984	     -0.84233914	      1.25212534	     -0.08312179	     -5.98013553	      0.70877020	      3.42650826	      0.42659255	      0.00744544	      4.83144880	    -12.71477655	     -7.49999987	     -5.29368210	      0.36803497	      6.85453889	      0.47416022	      0.00827566	      7.41450148	     -3.33413879	     -7.49999987	     -9.63623182	     -0.08298561	      1.67661786	      9.73572713	     -6.01982391	     19.25626609	     22.53422474	     73.39520295	      8.74988599	     -6.46475192	     18.80698994	     25.02739373	     71.61172527
      1.50000000	     -0.28015837	      1.02399341	      0.73305715	     -0.84215469	      1.25448608	     -0.08307986	     -5.81332684	      0.67430935	      3.73948563	      0.43017446	      0.00750796	      4.42101722	    -13.44536455	     -7.49999987	     -5.13309881	      0.41450272	      6.96065511	      0.46752569	      0.00815986	      7.17873183	     -3.54605947	     -7.49999987	     -9.43591978	     -0.13828839	      1.70322416	      9.75718346	     -6.01186292	     19.43124936	     22.39017189	     73.11004955	      8.72322985	     -6.46363027	     18.90590781	     24.88824790	     71.35760964
      1.50416670	     -0.23587919	      1.02813993	      0.74045980	     -0.84210929	      1.25625537	     -0.08305402	     -5.87658341	      0.66755201	      3.38631076	      0.42336740	      0.00738916	      4.51442898	    -13.04389881	     -7.49999987	     -5.18168538	      0.42639413	      6.94275827	      0.46666523	      0.00814484	      7.14483864	     -3.47549710	     -7.49999987	     -9.50945660	     -0.13458005	      1.68711697	      9.78097133	     -6.02129773	     19.41520196	     22.48713504	     72.72758521	      8.71714350	     -6.44842528	     18.83900922	     24.93654086	     71.02046682
      1.50833330	     -0.31993146	      1.04947519	      0.72537358	     -0.84171924	      1.25657112	     -0.08341444	     -5.76248771	      0.65496341	      3.50976774	      0.41702143	      0.00727840	      4.29827616	    -13.33514160	     -7.49999987	     -5.08812103	      0.45978003	      6.97728546	      0.47059598	      0.00821345	      7.03171673	     -3.47778865	     -7.49999987	     -9.36586681	     -0.17180594	      1.70767382	      9.76071119	     -6.02108773	     19.50786023	     22.39719937	     72.14607757	      8.71384193	     -6.42908136	     18.86285453	     24.83457990	     70.50485705
      1.51250000	     -0.31543128	      1.05551359	      0.64352584	     -0.84202238	      1.25637501	     -0.08294349	     -5.76714648	      0.62960170	      3.45927577	      0.41336006	      0.00721449	      4.16034060	    -13.39874359	     -7.49999987	     -5.11404953	      0.48391833	      6.63140610	      0.46378642	      0.00809460	      7.20294661	     -2.94207640	     -7.49999987	     -9.39017168	     -0.17140022	      1.82230804	      9.80139926	     -6.00122498	     19.49979726	     22.33636092	     71.41186295	      8.71604905	     -6.34982805	     18.76579503	     24.80945687	     69.84250487
      1.51666670	     -0.27770395	      1.06563283	      0.72510052	     -0.84141786	      1.25827256	     -0.08320931	     -5.82329761	      0.61726718	      2.93322854	      0.40205385	      0.00701716	      4.29200147	    -12.86284287	     -7.49999987	     -5.14794781	      0.49863484	      6.94697584	      0.46264207	      0.00807463	      6.96423549	     -3.40797010	     -7.49999987	     -9.46113538	     -0.16708113	      1.72529057	      9.84829020	     -5.98142288	     19.51455276	     22.32809028	     70.65081716	      8.71210338	     -6.33897665	     18.75324147	     24.78643584	     69.17583728
      1.52083330	     -0.38191032	      1.07442180	      0.64638086	     -0.84171757	      1.25687861	     -0.08295347	     -5.69510601	      0.60173595	      3.19505155	      0.39480102	      0.00689058	      3.74939489	    -13.65929183	     -7.49999987	     -5.05478383	      0.53419382	      6.89693178	      0.46199455	      0.00806333	      6.83359617	     -3.50698652	     -7.49999987	     -9.36773708	     -0.17739824	      1.83582226	      9.84499205	     -6.00253075	     18.88917041	     22.30983389	     75.81027122	      8.72269309	     -6.37235445	     18.54023009	     24.74991859	     73.87968882
      1.52500000	     -0.33010175	      1.07231427	      0.64993817	     -0.84113342	      1.25457508	     -0.08301411	     -5.76489585	      0.60362239	      2.91434091	      0.38720581	      0.00675802	      3.76295222	    -13.38784228	     -7.49999987	     -5.13821715	      0.54165562	      6.85296190	      0.46095953	      0.00804526	      6.84641742	     -3.46685753	     -7.49999987	     -9.45383113	     -0.18648270	      1.86283540	      9.84523407	     -5.99533512	     18.82131874	     22.37021065	     74.79362164	      8.71532153	     -6.34599379	     18.42178346	     24.84328013	     72.99722998
